<mxfile host="app.diagrams.net" modified="2023-05-16T09:42:43.685Z" agent="Mozilla/5.0 (Windows NT 10.0; Win64; x64) AppleWebKit/537.36 (KHTML, like Gecko) Chrome/113.0.0.0 Safari/537.36 Edg/113.0.1774.42" version="21.3.2" etag="u1-oPZMNqROE8xGH5hIj" type="github">
  <diagram name="Page-1" id="-xwSLHaQr-CrdYOVBwj2">
    <mxGraphModel>
      <root>
        <mxCell id="0" />
        <mxCell id="1" parent="0" />
      </root>
    </mxGraphModel>
  </diagram>
</mxfile>
